<svg width="100" height="100" viewBox="0 0 100 100" fill="none" xmlns="http://www.w3.org/2000/svg">
<rect width="100" height="100" fill="#E5E5E5"/>
<rect width="100" height="100" fill="white"/>
<rect width="4" height="100" fill="#C4C4C4"/>
<rect x="4" width="96" height="4" fill="#C4C4C4"/>
<rect x="96" y="4" width="4" height="96" fill="#C4C4C4"/>
<rect x="4" y="96" width="92" height="4" fill="#C4C4C4"/>
<rect x="8" y="64" width="4" height="32" fill="#C4C4C4"/>
<rect x="16" y="4" width="4" height="40" fill="#C4C4C4"/>
<rect x="16" y="49" width="4" height="47" fill="#C4C4C4"/>
<rect x="8" y="8" width="4" height="50" fill="#C4C4C4"/>
<rect x="12" y="22" width="4" height="4" fill="#C4C4C4"/>
<rect x="24" y="88" width="20" height="4" fill="#C4C4C4"/>
<rect x="48" y="80" width="4" height="16" fill="#C4C4C4"/>
<rect x="24" y="54" width="4" height="34" fill="#C4C4C4"/>
<rect x="24" y="4" width="4" height="45" fill="#C4C4C4"/>
<rect x="32" y="72" width="4" height="16" fill="#C4C4C4"/>
<rect x="32" y="42" width="4" height="26" fill="#C4C4C4"/>
<rect x="28" y="34" width="24" height="4" fill="#C4C4C4"/>
<rect x="40" y="56" width="4" height="32" fill="#C4C4C4"/>
<rect x="40" y="38" width="4" height="14" fill="#C4C4C4"/>
<rect x="28" y="26" width="24" height="4" fill="#C4C4C4"/>
<rect x="32" y="8" width="4" height="18" fill="#C4C4C4"/>
<rect x="40" y="4" width="4" height="18" fill="#C4C4C4"/>
<rect x="44" y="18" width="8" height="4" fill="#C4C4C4"/>
<rect x="48" y="4" width="4" height="10" fill="#C4C4C4"/>
<rect x="44" y="72" width="48" height="4" fill="#C4C4C4"/>
<rect x="56" y="76" width="4" height="16" fill="#C4C4C4"/>
<rect x="64" y="92" width="4" height="4" fill="#C4C4C4"/>
<rect x="60" y="80" width="24" height="4" fill="#C4C4C4"/>
<rect x="64" y="84" width="4" height="4" fill="#C4C4C4"/>
<rect x="72" y="84" width="4" height="8" fill="#C4C4C4"/>
<rect x="80" y="88" width="4" height="8" fill="#C4C4C4"/>
<rect x="88" y="76" width="4" height="16" fill="#C4C4C4"/>
<rect x="42" y="64" width="50" height="4" fill="#C4C4C4"/>
<rect x="48" y="56" width="48" height="4" fill="#C4C4C4"/>
<rect x="44" y="48" width="48" height="4" fill="#C4C4C4"/>
<rect x="48" y="44" width="4" height="4" fill="#C4C4C4"/>
<rect x="56" y="8" width="4" height="36" fill="#C4C4C4"/>
<rect x="60" y="40" width="32" height="4" fill="#C4C4C4"/>
<rect x="64" y="8" width="28" height="4" fill="#C4C4C4"/>
<rect x="88" y="12" width="4" height="24" fill="#C4C4C4"/>
<rect x="64" y="17" width="4" height="19" fill="#C4C4C4"/>
<rect x="68" y="32" width="16" height="4" fill="#C4C4C4"/>
<rect x="72" y="17" width="12" height="4" fill="#C4C4C4"/>
<rect x="80" y="21" width="4" height="7" fill="#C4C4C4"/>
<rect x="72" y="24" width="4" height="4" fill="#C4C4C4"/>
</svg>
